<svg width="30" height="30" viewBox="0 0 30 30" fill="none" xmlns="http://www.w3.org/2000/svg">
<path d="M13.4463 15L19.6338 21.1875C19.7531 21.3028 19.8484 21.4407 19.9139 21.5932C19.9794 21.7457 20.0139 21.9098 20.0153 22.0757C20.0168 22.2417 19.9851 22.4063 19.9223 22.5599C19.8594 22.7135 19.7666 22.8531 19.6492 22.9705C19.5319 23.0878 19.3923 23.1807 19.2387 23.2435C19.0851 23.3064 18.9205 23.338 18.7545 23.3365C18.5885 23.3351 18.4245 23.3006 18.272 23.2351C18.1195 23.1696 17.9816 23.0744 17.8663 22.955L10.795 15.8837C10.5607 15.6493 10.429 15.3314 10.429 15C10.429 14.6685 10.5607 14.3506 10.795 14.1162L17.8663 7.04498C18.102 6.81728 18.4178 6.69129 18.7455 6.69414C19.0732 6.69699 19.3868 6.82845 19.6185 7.06021C19.8503 7.29197 19.9817 7.60548 19.9846 7.93323C19.9874 8.26098 19.8615 8.57673 19.6338 8.81248L13.4463 15Z" fill="#939393"/>
</svg>
