<svg width="30" height="30" viewBox="0 0 30 30" fill="none" xmlns="http://www.w3.org/2000/svg">
<path d="M16.5537 15L10.3662 21.1875C10.2469 21.3028 10.1516 21.4407 10.0861 21.5932C10.0206 21.7457 9.98612 21.9098 9.98468 22.0757C9.98324 22.2417 10.0149 22.4063 10.0777 22.5599C10.1406 22.7135 10.2334 22.8531 10.3508 22.9705C10.4681 23.0878 10.6077 23.1807 10.7613 23.2435C10.9149 23.3064 11.0795 23.338 11.2455 23.3365C11.4115 23.3351 11.5755 23.3006 11.728 23.2351C11.8805 23.1696 12.0184 23.0744 12.1337 22.955L19.205 15.8837C19.4393 15.6493 19.571 15.3314 19.571 15C19.571 14.6685 19.4393 14.3506 19.205 14.1162L12.1337 7.04498C11.898 6.81728 11.5822 6.69129 11.2545 6.69414C10.9268 6.69699 10.6132 6.82845 10.3815 7.06021C10.1497 7.29197 10.0183 7.60548 10.0154 7.93323C10.0126 8.26098 10.1385 8.57673 10.3662 8.81248L16.5537 15Z" fill="#939393"/>
</svg>
