<svg width="56" height="56" viewBox="0 0 56 56" fill="none" xmlns="http://www.w3.org/2000/svg">
<path d="M11.6667 51.3334H44.3333C46.907 51.3334 49 49.2404 49 46.6668V21.0001C49 20.3812 48.7542 19.7878 48.3166 19.3502C47.879 18.9126 47.2855 18.6667 46.6667 18.6667H39.6667V16.3334C39.6667 9.90041 34.433 4.66675 28 4.66675C21.567 4.66675 16.3333 9.90041 16.3333 16.3334V18.6667H9.33333C8.71449 18.6667 8.121 18.9126 7.68342 19.3502C7.24583 19.7878 7 20.3812 7 21.0001V46.6668C7 49.2404 9.093 51.3334 11.6667 51.3334ZM21 16.3334C21 12.4741 24.1407 9.33342 28 9.33342C31.8593 9.33342 35 12.4741 35 16.3334V18.6667H21V16.3334ZM11.6667 23.3334H16.3333V28.0001H21V23.3334H35V28.0001H39.6667V23.3334H44.3333L44.338 46.6668H11.6667V23.3334Z" fill="#FF7475"/>
</svg>
