<svg width="58" height="58" viewBox="0 0 58 58" fill="none" xmlns="http://www.w3.org/2000/svg">
<path d="M7.25 29H29V32.625H7.25V29Z" fill="#FF7475"/>
<path d="M3.625 19.9375H21.75V23.5625H3.625V19.9375Z" fill="#FF7475"/>
<path d="M54.2282 30.0984L48.7907 17.4109C48.6511 17.0848 48.4189 16.8068 48.1228 16.6116C47.8267 16.4163 47.4797 16.3123 47.125 16.3125H41.6875V12.6875C41.6875 12.2068 41.4965 11.7458 41.1566 11.4059C40.8167 11.066 40.3557 10.875 39.875 10.875H10.875V14.5H38.0625V37.2577C37.2366 37.7373 36.5138 38.3757 35.9358 39.1359C35.3578 39.8962 34.9361 40.7634 34.6949 41.6875H23.3051C22.864 39.9789 21.8148 38.4899 20.3544 37.4995C18.8939 36.5092 17.1223 36.0854 15.3718 36.3078C13.6213 36.5301 12.0119 37.3833 10.8454 38.7073C9.67891 40.0314 9.03534 41.7354 9.03534 43.5C9.03534 45.2646 9.67891 46.9686 10.8454 48.2927C12.0119 49.6167 13.6213 50.4699 15.3718 50.6922C17.1223 50.9146 18.8939 50.4908 20.3544 49.5005C21.8148 48.5101 22.864 47.0211 23.3051 45.3125H34.6949C35.0892 46.8681 35.9909 48.2477 37.2573 49.2332C38.5238 50.2188 40.0828 50.7539 41.6875 50.7539C43.2922 50.7539 44.8512 50.2188 46.1177 49.2332C47.3841 48.2477 48.2858 46.8681 48.6801 45.3125H52.5625C53.0432 45.3125 53.5042 45.1215 53.8441 44.7816C54.184 44.4417 54.375 43.9807 54.375 43.5V30.8125C54.3751 30.567 54.3251 30.324 54.2282 30.0984ZM16.3125 47.125C15.5955 47.125 14.8947 46.9124 14.2986 46.5141C13.7024 46.1158 13.2378 45.5496 12.9634 44.8872C12.6891 44.2248 12.6173 43.496 12.7571 42.7928C12.897 42.0896 13.2423 41.4437 13.7492 40.9367C14.2562 40.4298 14.9021 40.0845 15.6053 39.9447C16.3085 39.8048 17.0373 39.8766 17.6997 40.1509C18.3621 40.4253 18.9283 40.8899 19.3266 41.4861C19.7249 42.0822 19.9375 42.783 19.9375 43.5C19.9365 44.4611 19.5543 45.3826 18.8747 46.0622C18.1951 46.7418 17.2736 47.124 16.3125 47.125ZM41.6875 19.9375H45.9287L49.8147 29H41.6875V19.9375ZM41.6875 47.125C40.9705 47.125 40.2697 46.9124 39.6736 46.5141C39.0774 46.1158 38.6128 45.5496 38.3384 44.8872C38.0641 44.2248 37.9923 43.496 38.1322 42.7928C38.272 42.0896 38.6173 41.4437 39.1242 40.9367C39.6312 40.4298 40.2771 40.0845 40.9803 39.9447C41.6835 39.8048 42.4123 39.8766 43.0747 40.1509C43.7371 40.4253 44.3033 40.8899 44.7016 41.4861C45.0999 42.0822 45.3125 42.783 45.3125 43.5C45.3115 44.4611 44.9293 45.3826 44.2497 46.0622C43.5701 46.7418 42.6486 47.124 41.6875 47.125ZM50.75 41.6875H48.6801C48.2809 40.135 47.3777 38.7588 46.1122 37.7748C44.8468 36.7907 43.2905 36.2545 41.6875 36.25V32.625H50.75V41.6875Z" fill="#FF7475"/>
</svg>
